            Another Fine Release Brought to you from - ZOMBiES                  
                                               

******************************************************************************

                     Dirty Girl 2011 DVDRip XViD-ZOMBiES
 
******************************************************************************


Release Name : Dirty Girl 2011 DVDRip XVID-ZOMBiES
Rating : 5.8/10
Genre : Drama
Stars : Juno Temple, Jeremy Dozier, Milla Jovovich, Zach Lasry
Director : Abe Sylvia
Writers : Abe Sylvia
Release Date : 7 Oct 2011
Movie Runtime : 1 hr 30 mins
Rated Under : R
Movie Plot : It's 1987 and Danielle, the high school 'Dirty Girl', is running away. With her is chubby, gay Clarke, a bag of flour called Joan and a Walkman full of glorious '80s tunes.
 
http://www.imdb.com/title/tt1107319/

Format                           : AVI
Format/Info                      : Audio Video Interleave
File size                        : 694 MiB
Duration                         : 1h 29mn
Overall bit rate                 : 1 086 Kbps
Writing application              : MEncoder SVN-r33823-4.1.2
Writing library                  : MPlayer

Video
ID                               : 0
Format                           : MPEG-4 Visual
Format profile                   : Advanced Simple@L5
Format settings, BVOP            : 1
Format settings, QPel            : No
Format settings, GMC             : No warppoints
Format settings, Matrix          : Default (MPEG)
Muxing mode                      : Packed bitstream
Codec ID                         : XVID
Codec ID/Hint                    : XviD
Duration                         : 1h 29mn
Bit rate                         : 952 Kbps
Width                            : 688 pixels
Height                           : 288 pixels
Display aspect ratio             : 2.40:1
Frame rate                       : 23.976 fps
Color space                      : YUV
Chroma subsampling               : 4:2:0
Bit depth                        : 8 bits
Scan type                        : Progressive
Compression mode                 : Lossy
Bits/(Pixel*Frame)               : 0.200
Stream size                      : 609 MiB (88%)
Writing library                  : XviD 1.2.0.dev47 (UTC 2006-11-01)

Audio
ID                               : 1
Format                           : MPEG Audio
Format version                   : Version 1
Format profile                   : Layer 3
Mode                             : Joint stereo
Mode extension                   : MS Stereo
Codec ID                         : 55
Codec ID/Hint                    : MP3
Duration                         : 1h 29mn
Bit rate mode                    : Constant
Bit rate                         : 128 Kbps
Channel(s)                       : 2 channels
Sampling rate                    : 48.0 KHz
Compression mode                 : Lossy
Stream size                      : 81.8 MiB (12%)
Alignment                        : Aligned on interleaves
Interleave, duration             : 480 ms (11.51 video frames)
Interleave, preload duration     : 960 ms
Writing library                  : LAME3.97


Thanks source

GREETS:

FLAWL3SS,ViSiON,Rx,ELEKTRI4KA,26K,DTRG,3LT0N,RemixHD,ABSURDITY
And to all the other p2p grps past and present .


Poster:

 
http://i.imgur.com/GUP4m.jpg


Screenshots:

 
http://i.imgur.com/r3KHn.jpg


ENJOY!